<svg xmlns="http://www.w3.org/2000/svg" xmlns:xlink="http://www.w3.org/1999/xlink" viewBox="0 0 4080 4080">
  <defs>
    <radialGradient id="a" cx="1280.48" cy="1391.67" r="382.64" fx="1280.48" fy="1391.67" gradientTransform="matrix(-1 0 0 1 4060 0)" gradientUnits="userSpaceOnUse">
      <stop offset="0" stop-color="#efcab6"/>
      <stop offset=".36" stop-color="#efcab6"/>
      <stop offset=".4" stop-color="#efcab6" stop-opacity=".91"/>
      <stop offset=".57" stop-color="#efcab6" stop-opacity=".59"/>
      <stop offset=".72" stop-color="#efcab6" stop-opacity=".34"/>
      <stop offset=".84" stop-color="#efcab6" stop-opacity=".15"/>
      <stop offset=".94" stop-color="#efcab6" stop-opacity=".04"/>
      <stop offset="1" stop-color="#efcab6" stop-opacity="0"/>
    </radialGradient>
    <radialGradient xlink:href="#a" id="d" cx="1370.88" cy="1123.83" r="382.64" fx="1370.88" fy="1123.83"/>
    <radialGradient id="e" cx="2204.29" cy="1318.52" r="382.64" fx="2204.29" fy="1318.52" gradientTransform="matrix(-1 0 0 1 4060 0)" gradientUnits="userSpaceOnUse">
      <stop offset="0" stop-color="#efcab6"/>
      <stop offset=".18" stop-color="#efcab6"/>
      <stop offset=".2" stop-color="#efcab6" stop-opacity=".97"/>
      <stop offset=".32" stop-color="#efcab6" stop-opacity=".72"/>
      <stop offset=".45" stop-color="#efcab6" stop-opacity=".5"/>
      <stop offset=".57" stop-color="#efcab6" stop-opacity=".32"/>
      <stop offset=".69" stop-color="#efcab6" stop-opacity=".18"/>
      <stop offset=".81" stop-color="#efcab6" stop-opacity=".08"/>
      <stop offset=".91" stop-color="#efcab6" stop-opacity=".02"/>
      <stop offset="1" stop-color="#efcab6" stop-opacity="0"/>
    </radialGradient>
    <radialGradient id="f" cx="1758.05" cy="1063.31" r="976.97" fx="1758.05" fy="1063.31" gradientTransform="matrix(-1 0 0 1.44 4060 -472.2)" gradientUnits="userSpaceOnUse">
      <stop offset="0" stop-color="#efcab6"/>
      <stop offset=".1" stop-color="#efcab6"/>
      <stop offset=".17" stop-color="#efcab6" stop-opacity=".93"/>
      <stop offset=".27" stop-color="#efcab6" stop-opacity=".78"/>
      <stop offset=".29" stop-color="#efcab6" stop-opacity=".72"/>
      <stop offset=".35" stop-color="#efcab6" stop-opacity=".41"/>
      <stop offset=".4" stop-color="#efcab6" stop-opacity=".22"/>
      <stop offset=".42" stop-color="#efcab6" stop-opacity=".15"/>
      <stop offset=".44" stop-color="#efcab6" stop-opacity=".14"/>
      <stop offset=".58" stop-color="#efcab6" stop-opacity=".04"/>
      <stop offset=".66" stop-color="#efcab6" stop-opacity="0"/>
      <stop offset=".99" stop-color="#efcab6" stop-opacity="0"/>
      <stop offset="1" stop-color="#efcab6" stop-opacity="0"/>
      <stop offset="1" stop-color="#efcab6" stop-opacity="0"/>
    </radialGradient>
    <radialGradient id="h" cx="2833.19" cy="3306" r="144.81" fx="2833.19" fy="3306" gradientTransform="rotate(-128.08 3222.357 1247.909) scale(1 -.48)" gradientUnits="userSpaceOnUse">
      <stop offset="0" stop-color="#975f5c"/>
      <stop offset=".55" stop-color="#78382f"/>
    </radialGradient>
    <radialGradient id="i" cx="2800.14" cy="3256.59" r="486.03" fx="2800.14" fy="3256.59" gradientTransform="rotate(169.44 1715.13 -221.156) scale(1 -1.09)" gradientUnits="userSpaceOnUse">
      <stop offset=".18" stop-color="#fffcf3" stop-opacity="0"/>
      <stop offset=".26" stop-color="#fffcf3" stop-opacity="0"/>
      <stop offset=".28" stop-color="#fffcf3" stop-opacity=".03"/>
      <stop offset=".3" stop-color="#fffcf3" stop-opacity=".08"/>
      <stop offset=".32" stop-color="#fffcf3" stop-opacity=".15"/>
      <stop offset=".33" stop-color="#fffcf3" stop-opacity=".23"/>
      <stop offset=".34" stop-color="#fffcf3" stop-opacity=".34"/>
      <stop offset=".35" stop-color="#fffcf3" stop-opacity=".37"/>
      <stop offset=".36" stop-color="#fffcf3" stop-opacity=".5"/>
      <stop offset=".37" stop-color="#fffcf3" stop-opacity=".63"/>
      <stop offset=".39" stop-color="#fffcf3" stop-opacity=".75"/>
      <stop offset=".4" stop-color="#fffcf3" stop-opacity=".84"/>
      <stop offset=".42" stop-color="#fffcf3" stop-opacity=".91"/>
      <stop offset=".44" stop-color="#fffcf3" stop-opacity=".96"/>
      <stop offset=".47" stop-color="#fffcf3" stop-opacity=".99"/>
      <stop offset=".54" stop-color="#fffcf3"/>
    </radialGradient>
    <radialGradient id="j" cx="2851.19" cy="3407.79" r="260.29" fx="2883.36" fy="3471.14" gradientTransform="rotate(169.44 1700.511 -232.84) scale(1 -1.09)" gradientUnits="userSpaceOnUse">
      <stop offset="0" stop-color="#f6ffff"/>
      <stop offset=".04" stop-color="#f6fefe" stop-opacity=".95"/>
      <stop offset=".11" stop-color="#f7fefc" stop-opacity=".83"/>
      <stop offset=".2" stop-color="#f9fdf9" stop-opacity=".63"/>
      <stop offset=".32" stop-color="#fbfcf4" stop-opacity=".35"/>
      <stop offset=".45" stop-color="#fefbef" stop-opacity="0"/>
      <stop offset=".45" stop-color="#fffbef" stop-opacity="0"/>
    </radialGradient>
    <linearGradient id="c" x1="1494.03" x2="1478.32" y1="925.55" y2="1379.15" gradientTransform="matrix(-1 0 0 1 4060 0)" gradientUnits="userSpaceOnUse">
      <stop offset="0" stop-color="#efcab6" stop-opacity="0"/>
      <stop offset="1" stop-color="#efcab6"/>
    </linearGradient>
    <linearGradient id="b" x1="1423.58" x2="3151.31" y1="2322.09" y2="2322.09" gradientTransform="matrix(-1 0 0 1 4060 0)" gradientUnits="userSpaceOnUse">
      <stop offset=".01" stop-color="#efcab6"/>
      <stop offset="1" stop-color="#dfb3ae"/>
    </linearGradient>
    <linearGradient xlink:href="#b" id="g" x1="1158.39" x2="2375.26" y1="2357.26" y2="2357.26"/>
  </defs>
  <rect width="4080" height="4080" fill="#939393" rx="2040" ry="2040"/>
  <path fill="url(#c)" d="M2369.94 1238.99c12.21-45.8 24.42-91.6 36.63-137.41 4.48-100.44 16.52-234.81 175.28-234.86 137.45-7.83 190.42 91.17 195.55 189.09 20.93 106.67 27.16 219.29-16.87 322.66-29.71 52.84-57.4 108.78-100.29 154.78-60.65 52.31-171.33 52.01-232.21 0-40.03-37.37-61.72-88.72-54.15-138.59-4.76-52.07-25.13-104.36-3.95-155.67Z"/>
  <path fill="url(#a)" d="M2411.56 1412.85c21.7-49.37 43.4-98.73 65.1-148.1 7.97-108.25 29.35-253.07 311.5-253.13 244.28-8.44 338.41 98.27 347.53 203.8 37.2 114.97 48.26 236.35-29.99 347.76-52.81 56.95-102.01 117.25-178.24 166.82-107.78 56.37-304.47 56.06-412.67 0-71.13-40.28-109.69-95.62-96.23-149.37-8.46-56.12-44.65-112.48-7.01-167.78Z"/>
  <path fill="url(#d)" d="M2321.15 1145.02c21.7-49.37 43.4-98.73 65.1-148.1 7.97-108.25 29.35-253.07 311.5-253.13 244.28-8.44 338.41 98.27 347.53 203.8 37.2 114.97 48.26 236.35-29.99 347.76-52.81 56.95-102.01 117.25-178.24 166.82-107.78 56.37-304.47 56.06-412.67 0-71.13-40.28-109.69-95.62-96.23-149.37-8.46-56.12-44.65-112.48-7.01-167.78Z"/>
  <path fill="url(#e)" d="M1487.74 1339.71c21.7-49.37 43.4-98.73 65.1-148.1 7.97-108.25 29.35-253.07 311.5-253.13 244.28-8.44 338.41 98.27 347.53 203.8 37.2 114.97 48.26 236.35-29.99 347.76-52.81 56.95-102.01 117.25-178.24 166.82-107.78 56.37-304.47 56.06-412.67 0-71.13-40.28-109.69-95.62-96.23-149.37-8.46-56.12-44.65-112.48-7.01-167.78Z"/>
  <path fill="url(#f)" d="M2978.65 1400.26c-57.2 87.17-113.85 175.12-164.21 266.47-160.97 185.54-377.88-376.25-554.77-413.17-97.92-78.39-258.21-72.45-320.44 47.19-11.33 20.65-30.73 35.82-53.7 41.07-230.55-17.79-499.84 100.74-328.28-248.51 123.08-219.05 221.73-508.93 470.82-610.25 4.73-1.92 9.25-4.32 13.54-7.09 134.61-87.27 273.06-380.52 433.53-360.69 24.99 3.09 47.13 17.59 60.28 39.06 63.19 103.16 106.97 204.31 136.44 322.79 5.3 21.31 18.7 39.81 37.56 51.07 68.52 40.88 95.35 96.17 99.79 173.02 1.48 25.58 14.66 48.98 35.82 63.43 44.69 30.51 67.4 75.64 65.53 127.16-.99 27.34 11.05 53.6 33.09 69.8 78.81 57.89 114.26 329.69 34.99 438.65Z"/>
  <path fill="url(#b)" d="m912.56 2793.01.02.14.02.14c12.19 73.14 38.75 142.42 64.44 209.41 14.06 36.67 28.6 74.58 40.42 112.31l.06.2.07.2c8.29 24.41 13 49.63 17.99 76.33.5 2.69 1.01 5.38 1.51 8.07a115.83 115.83 0 0 1 1.85 19.49v.22c.51 21.39 7.22 40.35 13.72 58.69l1.01 2.85.12.35.14.35c20.8 51.94 54.41 105.01 92.21 145.59 21.7 23.3 44.63 42.56 68.17 57.23 26.42 16.48 53.51 27.11 80.54 31.6l.23.04.23.03c9.23 1.29 19.19 2.49 29.51 2.49 18.4 0 33.52-3.94 46.16-12.05 15.9-2.39 26.78-11.73 35.61-19.31l1.45-1.24.3-.25.29-.27c11.01-10.27 19.34-21.82 27.39-32.99 9.26-12.85 18.02-25.01 29.82-33.47.87.06 1.74.09 2.6.09 10.95 0 19.52-4.46 26.46-8.87 23.52-14.24 45.12-31.03 66.01-47.27 6.66-5.18 13.55-10.53 20.34-15.68l.57-.43.53-.48c28.65-25.52 59.23-50.14 88.81-73.96 17.85-14.38 36.31-29.24 54.25-44.22l.24-.2.24-.21c40.98-36.74 75.74-84.64 109.4-150.74l.1-.2.1-.2c27.78-58.12 47.47-119.88 66.51-179.6 19.23-60.34 39.12-122.73 67.13-180.05l.17-.35.16-.36c14.05-32.2 32.95-60.71 56.2-94.63l.5-.73.43-.78c10.67-19.41 20.39-36.81 31.34-53.36l.1-.15.1-.15c63.96-100.91 150.98-190.73 235.14-277.6 68.73-70.94 139.8-144.29 198.65-223.85 31.91-43.14 57.72-84.54 78.92-126.57 23.89-47.37 41.34-94.29 53.33-143.43l.09-.37.07-.37c11.83-59.26 15.01-120.68 9.45-182.58l-.07-.77-.13-.76c-5.13-28.94-16.25-56.61-26.06-81.03l-.02-.05-.02-.05c-17.42-42.56-36.3-87.07-56.13-132.31-1.95-5.23-4-10.48-5.98-15.56-7.13-18.3-13.87-35.58-17.1-53.34l-.28-1.57-.55-1.49c-7.46-20.06-21.92-36.37-41.8-47.18-17.09-9.29-37.47-14.2-58.93-14.2-6.11 0-12.25.41-18.25 1.22-1.19-.04-4.18-1.15-6.38-1.97-.27-.1-.54-.2-.82-.3-.84-11.15-3.65-22.47-8.49-34.33-.87-2.12-1.83-4.38-3.29-6.55-3.84-5.73-9.85-9.01-16.5-9.01-5.66 0-9.79 2.33-13.12 4.37-35.72 17.33-63.19 44.32-89.77 70.42l-.1.1c1.69-5.57 4.48-11.78 8.36-18.6 5.77-9.52 10.91-19.36 15.89-28.87 9.02-17.23 17.53-33.5 29-47.02l.42-.49.38-.52c7.75-10.58 8.97-23.6 3.26-34.85-6.06-11.94-19.05-19.96-32.34-19.96-2.84 0-5.6.36-8.23 1.06l3.09-8.84-21.56-3.17c-3.76-.55-7.56-.83-11.3-.83-19.98 0-35.78 7.61-51.06 14.97-1.98.95-4.02 1.94-6.02 2.88-4.92 2.13-10.18 3.87-15.75 5.72-11.99 3.98-25.49 8.46-37.71 17.86-6.79 2.81-14.49 4.82-22.61 6.93-5.53 1.44-11.24 2.93-16.93 4.75-4.45 1.09-9.46 1.63-14.75 2.21-2.86.31-5.81.63-8.83 1.06-.8.1-1.63.15-2.53.15-4.03 0-8.73-1-13.71-2.06-3.89-.83-7.92-1.69-12.28-2.25-6.77-.87-13.04-1.3-19.17-1.3-18.35 0-34.37 3.84-48.96 11.75-7.74 3.74-14.76 8.28-21.55 12.68-6.54 4.24-12.78 8.28-18.86 11.05-.94-.06-1.87-.08-2.81-.08-16.06 0-31.38 7.98-41 21.35l-.08.12-.08.12c-1.79 2.58-3.33 5.08-4.82 7.5-.72 1.18-1.43 2.32-2.12 3.41-1.85 1.14-3.79 2.29-5.79 3.48-5.29 3.15-10.76 6.4-16.08 10.28-22.54 15.93-44.19 33.43-64.22 49.97-49.62 40-94.94 85.58-138.77 129.66-18.3 18.41-37.23 37.44-56.12 55.71l-.34.33-.32.35c-74.28 79.86-131.95 146.22-181.49 208.84l-.28.35-.26.37c-83.73 117.49-152.88 241.49-205.54 368.53-6.02 12.5-13.26 25.08-20.27 37.25-1.8 3.13-3.6 6.25-5.4 9.41-31.3 55.16-71.29 107.3-109.95 157.72-63.39 82.66-128.93 168.12-161.2 271.96-11.8 37.2-17.62 79.46-18.32 132.99-2.49 35.83-3.99 74.13 1.66 111.54ZM2248.9 1183.75c-3.22 4.1-6.77 8.22-10.69 12.39-.12-.12-.23-.25-.35-.37a42.643 42.643 0 0 0-14.35-9.92c2.63-2.97 5.1-6.08 7.42-9.33 4.26 3.1 10.21 6.91 17.97 7.23Z"/>
  <path fill="url(#g)" d="M1695.97 3258.74c5.01-6.11 12.04-12.8 22.7-21.58 143.75-148.09 165.54-241.64 190.74-349.91 8.95-38.46 18.21-78.22 33.38-122.17 17.23-49.9 39.76-97.84 68.86-146.57 34.9-58.43 79.34-118.47 135.85-183.55 62.31-71.75 140.7-150.71 233.01-234.69 8.89-10.78 19.85-19.98 30.46-28.88 15.33-12.86 29.89-25.07 33.33-37.97-2.59-9.55-2.91-19.4-.91-28.87 2.49-11.75 8.51-22.62 17.42-31.45 37.85-38.02 63.53-87.6 86.58-135.12l1.68-3.46 2.18-2.3c1.83-2.96 4.97-12.28 6.87-17.92 3.11-9.23 6.32-18.76 10.7-27.01 10.57-19.92 24.58-24.1 34.47-24.1 2.35 0 4.68.24 6.98.72 8.02-88.85 6.35-182.14-5.17-275.36-8.18-57.35-19.91-105.03-35.83-145.72-6.74-13.2-13.12-28.43-7.46-43.57 2.88-7.7 8.38-13.96 16.35-18.61 4.37-2.55 9.09-4.43 14.08-6.41 3.52-1.4 7.16-2.85 11.15-4.69l4.59-2.12 5.05-.17c2.41-.08 4.87-.12 7.32-.12 30.63 0 59.1 6.37 86.63 12.53 15.12 3.38 29.39 6.58 44.1 8.82l.86.13.85.19c8.84 1.98 19.6 3.38 30.99 4.85 38.73 5.02 86.93 11.26 109.51 49.02l8.31 13.91-9.3 13.27c-14.15 20.2-26.5 31.32-37.36 37.84 1.13 2.92 2.4 6.21 3.8 9.91l3.16 8.37-2.87 8.48c-6.55 19.32-13.48 39.05-20.18 58.12-28.22 80.33-57.4 163.39-69.3 246.87l-.06.45-.08.45c-27.25 151.58-7.9 316.81 60.9 519.98 23.03 68 39.19 128.21 49.4 184.07 11.85 64.82 15.81 123.78 12.09 180.25-1.99 30.26-6.3 60.08-12.8 88.62a537.858 537.858 0 0 1-27.9 87.24c-12.13 29.08-27.16 57.83-44.67 85.43-17.97 28.33-39.13 56.36-62.89 83.31-31.16 35.35-67.16 67.02-107 94.12-37.91 25.79-79.7 47.72-124.21 65.19-42.6 16.72-87.97 29.47-134.86 37.89-45.34 8.15-92.22 12.28-139.33 12.28-25.78 0-51.86-1.25-77.53-3.71-8.71-.76-17.5-1.69-26.46-2.78.42 9.36-2.58 18.55-8.76 26.5-8.95 11.51-29.24 28.13-101.85 39.41-44.18 6.87-92.45 9.31-122.88 9.31-19.02 0-33.34-.84-42.6-2.48-33.37-3.92-74.64-8.8-113.81-17.54-14.01-1.87-24.28-4.15-32.24-7.15-13.98-5.27-22.73-13.74-26-25.19-3.4-11.91-.06-24.13 9.93-36.32Z"/>
  <path d="M1018.18 3155.41c.36.67.58 1.4.66 2.15 16.28 161.63 108.15 302.89 260.15 369.04.19.08.39.16.58.23 163.04 59.76 258.24-189.82 407.08-199.83.84-.06 1.7.07 2.5.34 198.93 67.69 364.89 13.45 554.41-36.17.66-.17 1.37-.23 2.05-.17 565.49 49.11 755.56-516.51 597.61-969.64-28.35-81.35-46.96-165.84-51.86-251.85-10.46-183.53 7.65-367.41 79.5-539.94 5.62-18.06 8-37.01-22.36-34.21-5.57.47-12.26-12.58-19.69-12.46-2.47.04-4.4 2.18-5.16 4.53-5.4 16.62 25.92 30.71 9.97 52.46-.27.37-.53.81-.7 1.24-203.5 506.01-32.84 637.58 30.04 1103.36.04.32.07.65.06.98-2.02 515.86-458.95 703.31-904.86 561.38 38.66 40.98 102.51 42.32 153.79 64.23 4.84 2.07 5.12 8.97.38 11.25-118.95 57.29-262.53 42.94-388.67 14.03-18.58-5.83-19.32-9.14-6.75-22.04 102.63-96.29 193.61-217.08 210.5-360.47 49.07-317.36 318.41-545.58 535.09-756.7 28.33-35.44-20.48-34.98 32.35-81.48.29-.26.59-.56.83-.87 45.02-56.64 74.85-121.11 103.13-186.2 2.8-6.45 12.47-3.86 11.74 3.13-44.37 422.88 145.72-325.02-84.41-577.17-59.32-27.18 100.03 252.14 91.94 304.04-.06.4-.07.78-.03 1.18 45.76 428.83-428.44 650.76-607.47 991.39-.12.23-.26.45-.41.65-145.36 194.82-119.81 473.33-328.26 627.4-68.92 50.47-131.7 116.31-205.01 158.08-1.17.66-2.54.85-3.87.69-35.75-4.48-51.06 56.62-79.47 75.11-136.05 99.93-321.5-125.17-336.13-256.27-14.82-186.41-154.68-346.93-127.62-539.89.04-.25.05-.51.04-.76-6.7-260.07 245.04-411.51 330.89-641.17.05-.14.11-.28.18-.42 58.49-122.42 122.19-243.21 207.07-350.32 142.68-168.75 466.18-540.45 693.12-527.39 19.82 1.9 27.71-15.81 35.72-30.71 1.45-2.7.88-6.16-1.63-7.91-27.31-19.09-77.95-21.68-112.59-15.68-4.1 1.29-12.72-1.9-17.2-4.39-1.72-.96-2.81-2.71-3.02-4.66-4.88-44.64-73.33-30.2-103.95-52.12 68.98-16.47 134.74 19.6 194.89 50.59 3.99 2.06 8.76-.81 8.97-5.3 3.29-69.35-94.3-73.2-149.67-97.13-5.69-2.46-4.58-10.68 1.51-11.8 57.91-10.58 109.61 35.82 159.64 52.2 5.67 1.86 10.17-4.84 6.66-9.66-48.78-66.95-208.95-94.59-258.12-29.62-1.76 2.33-1.48 5.72.55 7.82 14.43 14.94 4.66 17.03-13.4 20.05-113.11 24.65-96.53 34.87-24.19 40.72 6.9.56 7.89 10.32 1.2 12.09-73.08 19.35-161.07 36.65-197.93 102.25-3.29 5.86 4.2 11.83 9.38 7.55 90.62-74.91 201.94-119 318.83-78.65 5.73 3.43 6.7 11.07-.79 13.77-109.43 71.53-297.89 51.65-360.99 177.26-2.08 4.14 1.22 9 5.85 8.87 57.86-1.63 121.13-54.89 180.79-48.64-15.74 21.97-53.13 18.9-73.53 35.46-4.4 3.57-1.49 10.77 4.17 10.77h.31c5.83 0 8.38 7.2 3.83 10.85-283.04 227.52-457.2 544.64-623.26 862.52-.11.21-.23.41-.35.6-109.05 164-271.39 314.91-256.06 528.31-.68 158.46 46.94 314.93 121.45 453.1Zm932.96-2144.22c9.34-5.5 19.16-4.77 29.17.96-4.44.99-8.92 2.95-13.3 2.73-5.34-.27-10.58-2.38-15.87-3.69Zm106.64 113.33c2.1-1.05 4.8-.96 6.52.65.84.79 1.89 1.37 3.08 1.81 5.43 2.02 4.66 10.11-.96 11.55-36.4 9.35-73.01 17.54-102.5 44.05-2.74 2.44-13.77.71-15.8-2.42-2.55-42.22 75.3-38.52 109.67-55.64Zm-158.21 98.91c-53.05 1.64-104.61 15.65-155.05 28.42-6.57 1.66-10.68-7.06-5.14-10.97 47.72-33.63 117.33-57.89 174.78-43.64 4.51 1.12 6.35 6.5 3.34 10.03-4.48 5.25-8.97 10.5-14.18 14.8-1.05.87-2.39 1.32-3.75 1.36Zm69.3-494.08 52.23-5.13c-213.43-87.74 48.95-43.03 114.91-43.31 13.17.56 26.33-1.99 30.57-19.08 23.79-88.75 121.57-105.54 196.77-129.92 125.18 11.96-206.46 50.84-171.72 149-27.3 55.14-134.06-.61-173.94 16.03 40.53 34.76 108.81 18.92 144.81 62.63-62.29 28.58-134.72-25.11-200.68-8.24 50.79 31.04 125.58 30.28 168.79 69.66-4.11 13.28-33.53 3.92-26.35 24.4 16.08 28.32 80.76 16.71 75 58.21-122.43-22.23-229.05 27.95-329.16 87.36 25.14-62.93 110.64-81.27 168.48-106.19-74.31-19.89-150.99 31.97-220.67 24.83 73.57-50.86 177.56-71.16 265.17-88.26-54.32-26.47-135.19-10.06-197.05-7.41-65.45 8.75-119.15 66.14-175.69 79.01 53.38-94.8 185.72-96.93 281.02-112.54-43.59-35.47-116.75-11.26-160.95-42.56 44.76-26.62 107.16-5.25 158.27-11.76l.18 3.27Zm430.2 295.06c6.73-24.43 37.61-172.21 47.14-78.61-19.99 94.19 54.19 168.36 72.58 250.07-18.95 2.96-26.81-29.68-41.56-31.21-20.03 5.79 9.53 28.08-16.07 34.17-83.38 15.51-148.93 56.98-197.49 124.51-36.72-35.45 22.85-92.08 35.02-130.51 6.48-12.73 31.51-25.75 5.94-39.27-18.88-9.99-21.92 14.47-28.93 25.02-37.82 52.18-98.41 100.05-164.46 93.59 30.02-33.39 85.54-35.91 111.67-70.94-54.45 1.65-114.56 63.52-167.39 42.88 48.9-38.8 131.12-26.78 169.21-91.37 1.69-2.55 14.45-2.19 15.83.29 20.16 32.24 40.86-38.58 24.69-57.52-30.75-73.99-66.98-183.32 2.74-243.44-17.5 89.47-29.69 188.57 37.49 264.13-5.3-61.25-46.66-139.22-7.64-195.29 19.61 62.63-9.72 233.86 102.87 205.55 13.49-3.74 16.05-9.69 8.52-20.67-47.31-84.86-84.85-216.66-26.93-301.95 6.01 33-8.41 67.82-10.8 104.59 10.73 35.96 3.86 85.2 27.54 115.97Zm52.92 140.47c-28.52-69.88-130.54 40.13-153.84 76.05 2.08-1.43 4.15-2.86 6.23-4.3 47.23-25.7 111.24-32.27 147.61-71.75Zm17.21-23.02c-5.22-37.96-26.37-74.53-41.44-110.05-2.49 5.62-4.97 11.24-6.07 13.74 4.81 39.29 17.32 75.34 47.51 96.31Zm-225.3-731.87c7.31-3.82 14.63-7.63 21.94-11.45l-1.88 1.64c39.38-4.41 131.27-47.59 147.56-.46-3.89 14.55-19.5 4.97-30.19 2.5-70.73-27.61-88.82 82.1-44.18 67.65 21.61-11.57 39.1-41.1 65.86-32.85-4.36 32.74-47.47 48.85-72.3 65.95-75.45 59.44-163.41-37.62-241.16 7.79 31.19 20.81 101.13-7.57 114.59 42.9-56.33 6.38-118.92 2.9-165.44 41.67 42.42 3.49 102.55-33.59 135.05-5.39-55.71 13.3-113.55 11.44-163.58 45.27-11.71 6.83-24.61 21.13-40.15 7.12-21.31-52.97 99.44-68.08 122.54-106.27-37.92-17.34-128.17 48.72-146.03 31.23 40.34-59.47 135.82-84.66 209.07-89.64 41.06-.36 60.93-45.8 90.01-69.02l-1.73 1.36Zm-32.54 69.93c24.04 25.79 51.77 15.06 82.8 7.58 15.35-5.4 1.31-64.46-15.98-66.79-16.6 17.98-78.28 28.78-66.82 59.22Zm631.51 686.8c-31.39 53.3-192.94 114.93-206.33 32.74-.97-39.51-91.58-17.53-96.63-66.57 178.27 3.62-74.4-35.72-56.65-104.56 127.57 44.97 146.83 132.14 266.64 21.17 13.82-.7 28.54-39.38 45.1-17.15-5.38 33.44-119.33 85.43-145.84 121.56 108.26 42.05 170.12-129.72 239.41-81.09-61.19 22.4-113.5 74.33-149.76 130.17 36.28-3.83 69.8-24.58 104.82-35.35l-.76-.94Zm-324.56-692.63c-11.91 111.95-34.88 213.57 58.68 299.2-84.58-.38-104.31-82.19-111.61-149.07 7.09-55.54 13.94-112.43 52.92-150.13Zm-252.46-75.54c-7.31 3.82-14.63 7.63-21.94 11.45l1.73-1.36c-56.06-22.81 113.92-62.34 135.49-65.28-18.48-21.98-28.82-51.89-51.75-69.04-10.69 12.27 7.18 36.28-14.12 37.98-3.31.01-9.86-19.24-9.25-29.26.78-12.77 4.12-27.96 12.08-37.16 21.5-20.99 9.58-47.59 22.9-70.35 14.33 42.03 10.93 88.95 53.16 118.28 6.4 4.75 12.17 19.66 9.34 25.81-16.18 33.23 39.1 16.65 56.56 32.76-56.82 25.08-140.6-4.77-196.08 47.79l1.88-1.64Zm498.51 1228.51c-20.23-55.51-86.47-90.24-108.63-142.06 14.66-18.63 1.51-29.89-7.78-42.98 20.59-58.67 186.94 210.09 114.95 183.42l1.47 1.62ZM2377.33 590.34c-40.88 51.61-177.71 86.5-107.58 181.53 10.8 17.21 31.45 33.4 20.72 55.33-32.47-9.47-53.24-64.52-62.09-92.9-8.05-83.18 87.93-139.93 148.94-143.97Zm47.89 204.28c45.03 98.36 103.12 96.73 192.23 131.6-5.49 8.98-18.93 11.76-26.46 10.96-75.37.36-201.17-54.51-165.77-142.56ZM2749.99 1262c130.53 2.22 199.82 140.72 257.54 236.94-94.46-70.62-118.33-213.31-260.22-221.11-4.07-4.41-3.22-14.42 2.68-15.84Zm-323.21-577.24c25.22 50.64 36.57 106.93 83.49 145.48 10.25 13.75 34.13 26.11 29.29 45.31-69.01-21.82-99.17-103.81-123.88-162.15-2.29-15.71 3.15-18.45 11.11-28.64Zm19.73 1118.02c-141.75-281.09-89.18-347.98 3.09-9.28-.22.67-1.66 4.97-3.09 9.28Zm185.41-444.61c68.99 30.35 146.42 126.92 156.82 197.56-43.14-72.52-109.08-131.45-156.82-197.56Zm-147.77 812.76c55.63-31.72-197.24 177.95-138.39 109.86 5.16-5.96 10.75-11.66 16.62-16.92 38.85-34.81 79.13-66.79 121.76-92.94Zm175.91-1143.43c4.23.8 7.23 8.08 10.8 12.36-45.6 18.15-100.84-27.43-122.63-66.69 36.9-13.04 66.77 55.05 111.83 54.33Zm183.57 140.17c38.03-56.24 109.93 98.65 72.51 115.58-20.92-40.34-14.31-100.91-73.27-116.52l.76.94Zm-473 1152.38c-25.03 2.89 82.97-56.43 119.71-83.05 3.19-2.31 7.28 2.09 5.91 5.78-9.23 24.93-110.85 75.56-125.63 77.27Zm267.42-1037.9c27.66 6.99 50.18 52.96 51.07 80.08-20.82-25.1-81.68-60.66-61.39-95.95 12.07-20.44 9.55-22.05 24.16-8.22 9.64 9.12 22.21 18.29 1.74 29.3-5.23-1.89-11.73-12.46-15.58-5.21Zm-1188.3 2094.33c-11.28.3-41.25-117.41-39.8-119.04 13.13-14.77 38.47 69.34 46.71 92.53 5.34 15.03 5.54 26.18-6.91 26.51Zm881.39-1775.67c18.81 21.2 72.97 125.36 52.84 143.61-21.27-41.83-57.36-96.96-52.84-143.61Zm592.03-129.2c-8.94 25.88-79.65-48.57-90.64-64.63 33.85-16.74 70.81 38.72 90.64 64.63Zm-1818.9 888.13c17.06-33.34 39.97-64.76 98.92-100.84 31.58-19.33-115.74 133.7-98.92 100.84Zm1184.84-720.57c31.97.87 61.39 65.72 52.67 94.2-21.68-22.4-48.82-64.34-52.67-94.2Zm188.15-1233.3c17.45-17.48 14.27-47.19 28.35-61.87 28.82 15.19-9.24 103.19-28.35 61.87Zm-28.58 1936.88c-.81-17.36 25.51-35.36 42.62-38.67 27.18-5.27-42.16 48.46-42.62 38.67Zm-1206.88-49.84c-3.34 6.25-24.15 20.47-25.93 41.27-.36 4.17-7.9 4.75-10.06 1.17-6.32-10.47 19.32-37.06 27-47.02 2.53-3.29 10.96.92 9 4.58ZM2436.68 236.12c21.21-1.97 16.35 19.53 25.32 28.69 6.99 10.24 16.57 19.56 6.08 32.43-22.89-14.62-25.91-36.98-31.41-61.11Zm83.26 2132.12c-11.29 11.29-58.25 31.97-45.09 12.97 12.03-17.36 63.28-31.16 45.09-12.97ZM1046.26 3044.5c14.79-1.51 35.69 32.68 21.42 42.68-13.87-6.32-24.31-28.22-21.42-42.68Zm508.71 261.29c-3.62 22.02-24.12 1.92-38.38.46 4.65-23.56 23.58-1.42 38.38-.46Zm735.53-1581.83c-10.6-13.74-22.88-18.11-12.21-38.47 8.98 15.65 22.99 22.52 12.21 38.47ZM1102.19 3069.27c-2.76 0-20.37-11.04-21.07-18.14-.84-8.59 33.07 18.14 21.07 18.14Zm188.22-745.87c-2.72-9.06 1.44-32.8 6.74-22.37 2.26 4.45-3 34.83-6.74 22.37Zm349.21 907.47c5.13-11.51 6.14-20 21.41-9.54-7.43 10.53-11.85 22.34-21.41 9.54Zm-32.69 48.06c-11.54 10.98-13.01 19.28-31.01 6.37 13.99-4.93 20.72-16.85 31.01-6.37Zm451.89-855.32c-3.72-2.36-7.45-4.73-12.95-8.22 9.09-18.12 26.11-5.42 12.95 8.22Zm493.46 63.5c.43 13.35-19.26 15.32-20.95 10.95-1.69-4.37 13.76-19.38 20.95-10.95Zm-341.87-258.45c.05.07-2.65 2.77-3.27 2.49-3.27-1.5-6.29-3.55-9.39-5.41 1.39-2.11 2.77-4.22 4.83-7.35 2.83 3.61 5.43 6.88 7.83 10.28Zm-62.87 72.44c2.67-8.02 5.86-6.05 11.72-2.57-3.13 6.3-6.41 5.73-11.72 2.57Zm371.16 116.28c11.64-2.27-5.73 22.2-4.83 7.89.19-3.09 1.81-7.3 4.83-7.89Zm100.68-1590.84c30.09-10.81 82.25 54.1 126.83 62.16 38.56 21.13 92.25 11.31 126.12 35.43-26.56 44.64-248.38-60.36-252.94-97.58Zm34.5-137c34.65 57.22 91.59 101.47 153.45 131.61 4.97 49.15-196.17-95.08-153.45-131.61Zm-9.33-143.09c85.52 40.5 177.45 77.96 188.31 180.42 29.84 26.03 144.66 118.28 79.25 98.41-133.14-99.92-79.93-84.68-147.25-193.76 4.88-8.84-197.14-69.62-120.32-85.07Zm-527.5 1816.82c.8-8.86-12.55-5.77-14.75.03-10.01 14.63 24.75 15.05 14.75-.03Zm-.49 1.82c.24-.27.27-1.37.37-1.19-.01.43-.21.81-.37 1.19Zm-118.03 86.01c9.56 3.4 44.9 39.11 21.09 35.91-4.33 14.27-39.36-41.45-21.09-35.91Zm-42.33 59.46c3.7 22.01 14.71 41.24 26.32 59.65 6.41 3.89.14 13.02-5.85 8.28-14.21-3.99-47.54-83.49-20.46-67.93Zm-41.17 71.18c-1.41 17.66 45.28 86 26.37 86.2-14.06.5-54.74-103.37-26.37-86.2Zm-55.64 104.18c-.02-8.95-11.57-67.72 6.37-47.38 1.37 22.63 3.84 45.15 7.2 67.55 5.33 25.87 26.85 53.28 22.71 79.06-24.35 14.55-22.89-34.09-27.54-48.24-.43-16.37-12.9-37.17-8.74-50.99Z"/>
  <path fill="url(#h)" d="M1114.79 3214.03c-12.07-6.53-2.38-15.93 4.43-17.41 10.72-2.33 22.74-1.95 33.62.24 73.58 14.78 117.19 63.7 144.96 129.8 9.84 23.43 12.06 47.37 5.96 72.71-2.86 11.9-.05 25.21.5 37.86.44 10.14 12.61 23.22-2.87 28.58-3.97 1.37-15.25-14.89-21.25-24.28-3.28-5.13-3.41-12.82-3.49-19.37-.35-30.79-22.02-42.53-46.15-51.36-7.51-2.75-16.7-.68-24.48-2.99-11.62-3.45-22.68-9.79-17.53-24.72 9.39-27.27-6.45-43.16-27.68-48.33-24.46-5.95-24.41-23.21-29.31-41.69 16.52-21.41 1.05-29.43-16.72-39.04Z"/>
  <path d="M1114.79 3214.03c-12.07-6.53-2.38-15.93 4.43-17.41 10.72-2.33 22.74-1.95 33.62.24 73.58 14.78 117.19 63.7 144.96 129.8 9.84 23.43 12.06 47.37 5.96 72.71-2.86 11.9-.05 25.21.5 37.86.44 10.14 12.61 23.22-2.87 28.58-3.97 1.37-15.25-14.89-21.25-24.28-3.28-5.13-3.41-12.82-3.49-19.37-.35-30.79-22.02-42.53-46.15-51.36-7.51-2.75-16.7-.68-24.48-2.99-11.62-3.45-22.68-9.79-17.53-24.72 9.39-27.27-6.45-43.16-27.68-48.33-24.46-5.95-24.41-23.21-29.31-41.69 16.52-21.41 1.05-29.43-16.72-39.04Z" opacity=".4"/>
  <path fill="url(#i)" d="M1280.59 3399.46s-.03.01-.04.02c-76.65 72.76 9.85 192-.86 281.96-8.56 56.52-61.39 47.52-87.94 9.85-.61-3.21.82 4.31-.3-1.54-1.12-5.85-4.6-22.7-3.17-32.1.73-4.81-.32-11.08-3.07-15.94 0 .19 0 0 0 0-2.23-3.93-2.44-9.93-.35-14.07 20.39-40.49.97-88.78 1.07-131.64.01-5.64-1.85-12.04-5.16-17.2-2.44-3.8-4.3-8.95-5.37-13.45-1.18-4.97-4.18-9.41-7.34-13.02-27.04-30.89 14.85-57.62 21.31-90.13 3.71-42.56-17.99-58.48 37.28-32.72 22.87 9.2 50.55 14.58 63.93 37.4v.03c-.37 12.33 7.57 32.45-9.99 32.57Z"/>
  <path fill="url(#j)" d="M1280.59 3399.46s-.03.01-.04.02c-76.65 72.76 9.85 192-.86 281.96-8.56 56.52-61.39 47.52-87.94 9.85-.61-3.21.82 4.31-.3-1.54-1.12-5.85-4.6-22.7-3.17-32.1.73-4.81-.32-11.08-3.07-15.94 0 .19 0 0 0 0-2.23-3.93-2.44-9.93-.35-14.07 20.39-40.49.97-88.78 1.07-131.64.01-5.64-1.85-12.04-5.16-17.2-2.44-3.8-4.3-8.95-5.37-13.45-1.18-4.97-4.18-9.41-7.34-13.02-27.04-30.89 14.85-57.62 21.31-90.13 3.71-42.56-17.99-58.48 37.28-32.72 22.87 9.2 50.55 14.58 63.93 37.4v.03c-.37 12.33 7.57 32.45-9.99 32.57Z"/>
</svg>
