<?xml version="1.0" encoding="UTF-8"?><svg xmlns="http://www.w3.org/2000/svg" viewBox="0 0 700 700"><path d="m182.32,583.45c.06.12.1.25.12.39,2.92,29.03,19.43,54.41,46.73,66.29.03.01.07.03.11.04,29.29,10.74,46.39-34.1,73.12-35.9.15-.01.31.01.45.06,35.73,12.16,65.55,2.42,99.59-6.5.12-.03.25-.04.37-.03,101.58,8.82,135.72-92.78,107.35-174.18-5.09-14.61-8.44-29.79-9.32-45.24-1.88-32.97,1.37-66,14.28-96.99,1.01-3.24,1.44-6.65-4.02-6.14-1,.08-2.2-2.26-3.54-2.24-.44,0-.79.39-.93.81-.97,2.99,4.66,5.52,1.79,9.42-.05.07-.09.15-.13.22-36.56,90.9-5.9,114.53,5.4,198.2,0,.06.01.12.01.18-.36,92.66-82.44,126.34-162.54,100.84,6.94,7.36,18.41,7.6,27.63,11.54.87.37.92,1.61.07,2.02-21.37,10.29-47.16,7.71-69.82,2.52-3.34-1.05-3.47-1.64-1.21-3.96,18.44-17.3,34.78-38.99,37.81-64.75,8.81-57.01,57.2-98,96.12-135.93,5.09-6.37-3.68-6.28,5.81-14.64.05-.05.11-.1.15-.16,8.09-10.17,13.45-21.76,18.53-33.45.5-1.16,2.24-.69,2.11.56-7.97,75.96,26.18-58.38-15.16-103.68-10.66-4.88,17.97,45.29,16.52,54.62-.01.07-.01.14,0,.21,8.22,77.03-76.96,116.9-109.12,178.09-.02.04-.05.08-.07.12-26.11,35-21.52,85.03-58.97,112.7-12.38,9.07-23.66,20.89-36.83,28.4-.21.12-.46.15-.7.12-6.42-.81-9.17,10.17-14.28,13.49-24.44,17.95-57.75-22.49-60.38-46.03-2.66-33.48-27.79-62.32-22.93-96.98,0-.05,0-.09,0-.14-1.2-46.72,44.02-73.92,59.44-115.17,0-.03.02-.05.03-.08,10.51-21.99,21.95-43.69,37.2-62.93,25.63-30.31,83.74-97.08,124.51-94.74,3.56.34,4.98-2.84,6.42-5.52.26-.48.16-1.11-.29-1.42-4.91-3.43-14-3.89-20.23-2.82-.74.23-2.29-.34-3.09-.79-.31-.17-.5-.49-.54-.84-.88-8.02-13.17-5.42-18.67-9.36,12.39-2.96,24.2,3.52,35.01,9.09.72.37,1.57-.15,1.61-.95.59-12.46-16.94-13.15-26.89-17.45-1.02-.44-.82-1.92.27-2.12,10.4-1.9,19.69,6.43,28.68,9.38,1.02.33,1.83-.87,1.2-1.74-8.76-12.03-37.53-16.99-46.37-5.32-.32.42-.27,1.03.1,1.4,2.59,2.68.84,3.06-2.41,3.6-20.32,4.43-17.34,6.26-4.35,7.31,1.24.1,1.42,1.85.22,2.17-13.13,3.48-28.93,6.58-35.55,18.37-.59,1.05.75,2.12,1.68,1.36,16.28-13.46,36.28-21.38,57.27-14.13,1.03.62,1.2,1.99-.14,2.47-19.66,12.85-53.51,9.28-64.85,31.84-.37.74.22,1.62,1.05,1.59,10.39-.29,21.76-9.86,32.48-8.74-2.83,3.95-9.54,3.4-13.21,6.37-.79.64-.27,1.94.75,1.94.02,0,.04,0,.06,0,1.05,0,1.51,1.29.69,1.95-50.84,40.87-82.13,97.83-111.96,154.94-.02.04-.04.07-.06.11-19.59,29.46-48.75,56.57-46,94.9-.12,28.47,8.43,56.57,21.82,81.39Zm167.59-385.17c1.68-.99,3.44-.86,5.24.17-.8.18-1.6.53-2.39.49-.96-.05-1.9-.43-2.85-.66Zm19.16,20.36c.38-.19.86-.17,1.17.12.15.14.34.25.55.33.98.36.84,1.82-.17,2.07-6.54,1.68-13.11,3.15-18.41,7.91-.49.44-2.47.13-2.84-.43-.46-7.58,13.53-6.92,19.7-9.99Zm-28.42,17.77c-9.53.3-18.79,2.81-27.85,5.1-1.18.3-1.92-1.27-.92-1.97,8.57-6.04,21.08-10.4,31.4-7.84.81.2,1.14,1.17.6,1.8-.81.94-1.61,1.89-2.55,2.66-.19.16-.43.24-.67.25Zm12.45-88.75c3.13-.31,6.25-.61,9.38-.92-38.34-15.76,8.79-7.73,20.64-7.78,2.37.1,4.73-.36,5.49-3.43,4.27-15.94,21.84-18.96,35.35-23.34,22.49,2.15-37.09,9.13-30.85,26.76-4.9,9.91-24.08-.11-31.24,2.88,7.28,6.24,19.55,3.4,26.01,11.25-11.19,5.13-24.2-4.51-36.05-1.48,9.12,5.58,22.56,5.44,30.32,12.51-.74,2.39-6.02.7-4.73,4.38,2.89,5.09,14.51,3,13.47,10.46-21.99-3.99-41.14,5.02-59.13,15.69,4.52-11.3,19.87-14.6,30.26-19.07-13.35-3.57-27.12,5.74-39.64,4.46,13.21-9.14,31.89-12.78,47.63-15.85-9.76-4.75-24.28-1.81-35.4-1.33-11.76,1.57-21.4,11.88-31.56,14.19,9.59-17.03,33.36-17.41,50.48-20.22-7.83-6.37-20.97-2.02-28.91-7.65,8.04-4.78,19.25-.94,28.43-2.11.01.2.02.39.03.59Zm77.28,53c1.21-4.39,6.76-30.93,8.47-14.12-3.59,16.92,9.73,30.24,13.04,44.92-3.4.53-4.82-5.33-7.47-5.61-3.6,1.04,1.71,5.04-2.89,6.14-14.98,2.79-26.75,10.24-35.48,22.37-6.6-6.37,4.1-16.54,6.29-23.44,1.16-2.29,5.66-4.63,1.07-7.05-3.39-1.79-3.94,2.6-5.2,4.49-6.79,9.37-17.68,17.97-29.54,16.81,5.39-6,15.37-6.45,20.06-12.74-9.78.3-20.58,11.41-30.07,7.7,8.78-6.97,23.55-4.81,30.4-16.41.3-.46,2.6-.39,2.84.05,3.62,5.79,7.34-6.93,4.44-10.33-5.52-13.29-12.03-32.93.49-43.73-3.14,16.07-5.33,33.87,6.73,47.45-.95-11-8.38-25.01-1.37-35.08,3.52,11.25-1.75,42.01,18.48,36.92,2.42-.67,2.88-1.74,1.53-3.71-8.5-15.24-15.24-38.92-4.84-54.24,1.08,5.93-1.51,12.18-1.94,18.79,1.93,6.46.69,15.3,4.95,20.83Zm9.51,25.23c-5.12-12.55-23.45,7.21-27.63,13.66.37-.26.75-.51,1.12-.77,8.48-4.62,19.98-5.8,26.52-12.89Zm3.09-4.14c-.94-6.82-4.74-13.39-7.44-19.77-.45,1.01-.89,2.02-1.09,2.47.86,7.06,3.11,13.53,8.53,17.3Zm-40.47-131.47c1.31-.69,2.63-1.37,3.94-2.06,0,0-.34.29-.34.29,7.07-.79,23.58-8.55,26.51-.08-.7,2.61-3.5.89-5.42.45-12.71-4.96-15.95,14.75-7.94,12.15,3.88-2.08,7.02-7.38,11.83-5.9-.78,5.88-8.53,8.78-12.99,11.85-13.55,10.68-29.35-6.76-43.32,1.4,5.6,3.74,18.17-1.36,20.58,7.71-10.12,1.15-21.36.52-29.72,7.49,7.62.63,18.42-6.03,24.26-.97-10.01,2.39-20.4,2.05-29.38,8.13-2.1,1.23-4.42,3.8-7.21,1.28-3.83-9.51,17.86-12.23,22.01-19.09-6.81-3.12-23.02,8.75-26.23,5.61,7.25-10.68,24.4-15.21,37.56-16.1,7.38-.06,10.95-8.23,16.17-12.4,0,0-.31.24-.31.24Zm-5.85,12.56c4.32,4.63,9.3,2.71,14.87,1.36,2.76-.97.24-11.58-2.87-12-2.98,3.23-14.06,5.17-12,10.64Zm113.44,123.37c-5.64,9.57-34.66,20.64-37.06,5.88-.17-7.1-16.45-3.15-17.36-11.96,32.02.65-13.36-6.42-10.18-18.78,22.92,8.08,26.38,23.74,47.9,3.8,2.48-.12,5.13-7.07,8.1-3.08-.97,6.01-21.43,15.35-26.2,21.84,19.45,7.55,30.56-23.3,43.01-14.57-10.99,4.02-20.39,13.35-26.9,23.38,6.52-.69,12.54-4.42,18.83-6.35l-.14-.17Zm-58.3-124.42c-2.14,20.11-6.27,38.36,10.54,53.75-15.19-.07-18.74-14.76-20.05-26.78,1.27-9.98,2.5-20.2,9.51-26.97Zm-45.35-13.57c-1.31.69-2.63,1.37-3.94,2.06,0,0,.31-.24.31-.24-10.07-4.1,20.46-11.2,24.34-11.73-3.32-3.95-5.18-9.32-9.3-12.4-1.92,2.2,1.29,6.52-2.54,6.82-.59,0-1.77-3.46-1.66-5.26.14-2.29.74-5.02,2.17-6.67,3.86-3.77,1.72-8.55,4.11-12.64,2.57,7.55,1.96,15.98,9.55,21.25,1.15.85,2.19,3.53,1.68,4.64-2.91,5.97,7.02,2.99,10.16,5.88-10.21,4.51-25.26-.86-35.22,8.59l.34-.29Zm89.55,220.68c-3.63-9.97-15.53-16.21-19.51-25.52,2.63-3.35.27-5.37-1.4-7.72,3.7-10.54,33.58,37.74,20.65,32.95,0,0,.26.29.26.29Zm-69.52-186.23c-7.34,9.27-31.92,15.54-19.32,32.61,1.94,3.09,5.65,6,3.72,9.94-5.83-1.7-9.56-11.59-11.15-16.69-1.45-14.94,15.8-25.14,26.76-25.86Zm8.6,36.7c8.09,17.67,18.52,17.38,34.53,23.64-.99,1.61-3.4,2.11-4.75,1.97-13.54.06-36.14-9.79-29.78-25.61Zm58.34,83.96c23.45.4,35.89,25.28,46.26,42.56-16.97-12.68-21.26-38.32-46.74-39.72-.73-.79-.58-2.59.48-2.84Zm-58.06-103.69c4.53,9.1,6.57,19.21,15,26.13,1.84,2.47,6.13,4.69,5.26,8.14-12.4-3.92-17.81-18.65-22.25-29.13-.41-2.82.56-3.31,2-5.14Zm3.54,200.83c-25.46-50.49-16.02-62.51.55-1.67-.04.12-.3.89-.55,1.67Zm33.31-79.87c12.39,5.45,26.3,22.8,28.17,35.49-7.75-13.03-19.6-23.61-28.17-35.49Zm-26.54,146c9.99-5.7-35.43,31.97-24.86,19.73.93-1.07,1.93-2.09,2.99-3.04,6.98-6.25,14.21-12,21.87-16.7Zm31.6-205.4c.76.14,1.3,1.45,1.94,2.22-8.19,3.26-18.11-4.93-22.03-11.98,6.63-2.34,11.99,9.89,20.09,9.76Zm32.98,25.18c6.83-10.1,19.75,17.72,13.02,20.76-3.76-7.25-2.57-18.13-13.16-20.93l.14.17Zm-84.97,207c-4.5.52,14.9-10.14,21.5-14.92.57-.42,1.31.38,1.06,1.04-1.66,4.48-19.91,13.57-22.57,13.88Zm48.04-186.44c4.97,1.25,9.01,9.51,9.17,14.38-3.74-4.51-14.67-10.9-11.03-17.24,2.17-3.67,1.71-3.96,4.34-1.48,1.73,1.64,3.99,3.29.31,5.26-.94-.34-2.11-2.24-2.8-.94Zm-213.46,376.21c-2.03.05-7.41-21.09-7.15-21.38,2.36-2.65,6.91,12.46,8.39,16.62.96,2.7,1,4.7-1.24,4.76Zm158.33-318.97c3.38,3.81,13.11,22.52,9.49,25.8-3.82-7.51-10.3-17.42-9.49-25.8Zm106.35-23.21c-1.61,4.65-14.31-8.72-16.28-11.61,6.08-3.01,12.72,6.96,16.28,11.61Zm-326.73,159.54c3.06-5.99,7.18-11.63,17.77-18.11,5.67-3.47-20.79,24.02-17.77,18.11Zm212.84-129.44c5.74.16,11.03,11.81,9.46,16.92-3.89-4.02-8.77-11.56-9.46-16.92Zm33.8-221.54c3.13-3.14,2.56-8.48,5.09-11.11,5.18,2.73-1.66,18.54-5.09,11.11Zm-5.13,347.93c-.14-3.12,4.58-6.35,7.66-6.95,4.88-.95-7.57,8.71-7.66,6.95Zm-216.79-8.95c-.6,1.12-4.34,3.68-4.66,7.41-.06.75-1.42.85-1.81.21-1.14-1.88,3.47-6.66,4.85-8.45.46-.59,1.97.17,1.62.82ZM437.13,59.05c3.81-.35,2.94,3.51,4.55,5.15,1.26,1.84,2.98,3.51,1.09,5.82-4.11-2.63-4.65-6.64-5.64-10.98Zm14.96,383c-2.03,2.03-10.46,5.74-8.1,2.33,2.16-3.12,11.37-5.6,8.1-2.33Zm-264.72,121.48c2.66-.27,6.41,5.87,3.85,7.67-2.49-1.14-4.37-5.07-3.85-7.67Zm91.38,46.94c-.65,3.96-4.33.34-6.89.08.83-4.23,4.24-.25,6.89-.08Zm132.13-284.15c-1.9-2.47-4.11-3.25-2.19-6.91,1.61,2.81,4.13,4.05,2.19,6.91Zm-213.46,241.66c-.5,0-3.66-1.98-3.78-3.26-.15-1.54,5.94,3.26,3.78,3.26Zm33.81-133.98c-.49-1.63.26-5.89,1.21-4.02.41.8-.54,6.26-1.21,4.02Zm62.73,163.01c.92-2.07,1.1-3.59,3.85-1.71-1.33,1.89-2.13,4.01-3.85,1.71Zm-5.87,8.63c-2.07,1.97-2.34,3.46-5.57,1.14,2.51-.89,3.72-3.03,5.57-1.14Zm81.17-153.64c-.67-.42-1.34-.85-2.33-1.48,1.63-3.25,4.69-.97,2.33,1.48Zm88.64,11.41c.08,2.4-3.46,2.75-3.76,1.97s2.47-3.48,3.76-1.97Zm-61.41-46.43s-.48.5-.59.45c-.59-.27-1.13-.64-1.69-.97.25-.38.5-.76.87-1.32.51.65.97,1.24,1.41,1.85Zm-11.29,13.01c.48-1.44,1.05-1.09,2.11-.46-.56,1.13-1.15,1.03-2.11.46Zm66.67,20.89c2.09-.41-1.03,3.99-.87,1.42.03-.56.33-1.31.87-1.42Zm18.09-285.77c5.41-1.94,14.77,9.72,22.78,11.17,6.93,3.8,16.57,2.03,22.65,6.36-4.77,8.02-44.62-10.84-45.44-17.53Zm6.2-24.61c6.22,10.28,16.45,18.23,27.56,23.64.89,8.83-35.24-17.08-27.56-23.64Zm-1.68-25.7c15.36,7.27,31.88,14,33.83,32.41,5.36,4.68,25.99,21.25,14.24,17.68-23.92-17.95-14.36-15.21-26.45-34.8.88-1.59-35.41-12.51-21.61-15.28Zm-94.76,326.36c.14-1.59-2.25-1.04-2.65,0-1.8,2.63,4.45,2.7,2.65,0Zm-.09.33s.05-.25.07-.21c0,.08-.04.15-.07.21Zm-21.2,15.45c1.72.61,8.07,7.03,3.79,6.45-.78,2.56-7.07-7.45-3.79-6.45Zm-7.6,10.68c.67,3.95,2.64,7.41,4.73,10.72,1.15.7.02,2.34-1.05,1.49-2.55-.72-8.54-15-3.68-12.2Zm-7.4,12.79c-.25,3.17,8.13,15.45,4.74,15.48-2.53.09-9.83-18.57-4.74-15.48Zm-9.99,18.71c0-1.61-2.08-12.17,1.14-8.51.25,4.06.69,8.11,1.29,12.13.96,4.65,4.82,9.57,4.08,14.2-4.37,2.61-4.11-6.12-4.95-8.67-.08-2.94-2.32-6.68-1.57-9.16Zm-137.36,85.08c-2.53-1.37-.5-3.34.93-3.65,2.25-.49,4.77-.41,7.05.05,15.43,3.1,24.57,13.35,30.39,27.21,2.06,4.91,2.53,9.93,1.25,15.24-.6,2.49-.01,5.28.11,7.94.09,2.13,2.64,4.87-.6,5.99-.83.29-3.2-3.12-4.46-5.09-.69-1.08-.71-2.69-.73-4.06-.07-6.45-4.62-8.92-9.67-10.77-1.57-.58-3.5-.14-5.13-.63-2.44-.72-4.75-2.05-3.68-5.18,1.97-5.72-1.35-9.05-5.8-10.13-5.13-1.25-5.12-4.87-6.14-8.74,3.46-4.49.22-6.17-3.5-8.18Z"/></svg>